<svg xmlns="http://www.w3.org/2000/svg" width="320" height="320" viewBox="0 0 320 320">
  <defs>
    <style>
      .cls-1, .cls-2 {
        fill: #2196f3;
        stroke: #2196f3;
        stroke-width: 1px;
      }

      .cls-1 {
        fill-rule: evenodd;
      }
    </style>
  </defs>
  <path id="形状_1" data-name="形状 1" class="cls-1" d="M152.66,28.066A26.645,26.645,0,0,1,160.082,27a23.929,23.929,0,0,1,7.422,1.066c0.853,0.283,1.574.618,2.422,0.914a5.467,5.467,0,0,1,1.271.553,10.768,10.768,0,0,1,2.773,2.7c1.238,1.9,5.706,7.069,8.03,11.77,1.932,3.908,4.5,8.467,6,12,5,11.811,10.785,25.41,15.082,34.73,1.227,2.662,3.22,6.82,4.918,10.27,6.582,13.371,15.668,31.974,19.406,38.648,6.917,12.348,14.331,31.994,16.11,38.021q0.32,1.086.588,2.153c0.319,1.269.6,2.583,0.846,3.973a57.984,57.984,0,0,1,1.017,9.437c0,1.095-.038,2.6-0.025,3.937,0,0.288.019,1.677,0.02,2.1,0,0.9,0,1.841-.02,2.778-0.053,3.2.113,6.1,0.025,9.3A80.72,80.72,0,0,1,244.907,222c-1.712,10.379-6.543,20.84-12.724,29.836-9.71,14.132-28.682,32.266-55.787,36.331a136.14,136.14,0,0,1-17.791.812c-6.186-.049-12.389.153-17.791-0.812-32.249-5.759-61.937-38.724-66.311-73.938-1.907-15.351,2.116-30.484,3.936-35.918C90.449,142.458,105.658,114.2,121,82c3.823-8.022,10.722-22.434,11.93-25.464,1.829-4.587,4.12-7.823,5.885-12.435,0.625-1.633,5.021-9.646,8.485-12.7,0.4-.351,1.195-1.03,1.833-1.547a9.869,9.869,0,0,1,1.277-1A6.257,6.257,0,0,1,152.66,28.066Zm3.181,10.656L151.6,42.984c-8.062,18.039-16.12,35.651-24.387,53.279-7.527,16.048-14.182,31.365-21.981,47.28-2.533,5.169-5.244,11.395-7.708,17.721-3.326,8.54-6.339,17.7-7.422,23.443-3.907,20.717-1.284,35.744,3.237,46.884,6.879,16.948,22.81,36.854,48.527,43.335a68.378,68.378,0,0,0,27.252,1.056c22.747-3.5,49.405-18.986,60.276-46.962,5.247-13.5,6.539-29.445,1.991-47.289a202.307,202.307,0,0,0-13.814-36.357c-8.5-17.461-19.472-39.769-27.163-59.022A224.635,224.635,0,0,0,180.228,64.3c-1.171-2.213-2.193-4.092-3.181-6.393-0.372-.865-1.877-4.941-3.181-7.459-1-1.938-2.11-3.427-3.181-5.328a23.564,23.564,0,0,0-2.12-3.2,21.318,21.318,0,0,0-3.181-3.2,11.391,11.391,0,0,0-4.264-1.066c-0.347-.016-0.692-0.016-1.038,0A11.314,11.314,0,0,0,155.841,38.722Zm-2.9,47.134,7.278,3.25v0.813c-0.124,6.138-2.61,9.916-5.661,16.25-0.892,1.854-2.146,4.736-3.317,7.309-0.545,1.2-1.071,2.325-1.535,3.254q-0.84,1.68-1.732,3.381-0.468.894-.948,1.793-0.885,1.659-1.807,3.335c-18.456,33.6-46.344,72.155-21.39,108.492,5.1,7.432,11.488,11.316,19.408,13.812a60.657,60.657,0,0,0,6.469,1.625c4.306,0.71,7.638.685,11.322,2.438,1.038,0.494.66,1.78,1.617,2.438q-0.4,2.436-.809,4.875-1.212,2.031-2.426,4.062c-29.357.6-50.276-20.5-55.8-47.125-1.991-9.6-2.581-18.321,0-29.251,0.556-2.354.824-5.749,1.617-8.125l28.3-57.688c3.484-6.815,6.867-14.734,10.513-21.938C146.587,93.84,148.9,88.994,152.944,85.855Z"/>
  <circle id="椭圆_1" data-name="椭圆 1" class="cls-2" cx="162.016" cy="84" r="10.016"/>
  <circle id="椭圆_1_拷贝" data-name="椭圆 1 拷贝" class="cls-2" cx="162.016" cy="258" r="15.016"/>
</svg>
